<svg xmlns="http://www.w3.org/2000/svg" viewBox="0 0 635.17 188.1"><defs><style>.cls-1{fill:#9c9b9b;}.cls-2{fill:#262626;}.cls-3{fill:#fc5269;}.cls-4{fill:#7d9f33;}</style></defs><g id="Layer_2" data-name="Layer 2"><g id="Layer_1-2" data-name="Layer 1"><path class="cls-1" d="M19.06,158.43v3.25H3.86v9.23H17.19v3.25H3.86v13.29H0v-29Z"/><path class="cls-1" d="M41.37,158.43l11.33,29H48.44l-3.17-8.74H33l-3.25,8.74H25.8l11.3-29Zm2.68,17-4.84-13.53h-.08l-4.92,13.53Z"/><path class="cls-1" d="M77.33,158.43a9.53,9.53,0,0,1,6.48,2A7,7,0,0,1,86.14,166a8.77,8.77,0,0,1-1.2,4.63,6.16,6.16,0,0,1-3.84,2.73v.08a5.17,5.17,0,0,1,2.06.81,4.65,4.65,0,0,1,1.26,1.36,6.28,6.28,0,0,1,.69,1.77c.14.65.26,1.33.34,2s.1,1.42.12,2.15a19,19,0,0,0,.21,2.16,12.8,12.8,0,0,0,.46,2,5,5,0,0,0,.92,1.69H82.85a2.51,2.51,0,0,1-.55-1.22,14,14,0,0,1-.18-1.73c0-.64-.05-1.32-.08-2.05a14.15,14.15,0,0,0-.25-2.16,19.85,19.85,0,0,0-.4-2,4.7,4.7,0,0,0-.77-1.66,3.85,3.85,0,0,0-1.38-1.14,5.06,5.06,0,0,0-2.28-.43H67.53v12.4H63.67v-29Zm.81,13.17a5.71,5.71,0,0,0,2.13-.79,4.3,4.3,0,0,0,1.46-1.59,5.25,5.25,0,0,0,.55-2.58,5.16,5.16,0,0,0-1.22-3.57,5,5,0,0,0-3.94-1.39H67.53V171.8h8A16.2,16.2,0,0,0,78.14,171.6Z"/><path class="cls-1" d="M105,158.43l9.14,24.38,9.18-24.38h5.29v29H125V163.31h-.08l-9.06,24.14h-3.3l-9.06-24.14h-.08v24.14H99.71v-29Z"/><path class="cls-1" d="M167.94,158.43l9.14,24.38,9.18-24.38h5.29v29h-3.66V163.31h-.08l-9.06,24.14h-3.29l-9.07-24.14h-.08v24.14h-3.65v-29Z"/><path class="cls-1" d="M218.24,158.43l11.34,29h-4.27l-3.17-8.74H209.87l-3.25,8.74h-3.94l11.3-29Zm2.68,17-4.83-13.53H216l-4.92,13.53Z"/><path class="cls-1" d="M244.61,158.43,259.89,182H260V158.43h3.66v29H259.4l-15.15-23.29h-.08v23.29h-3.66v-29Z"/><path class="cls-1" d="M290.16,158.43l11.34,29h-4.27l-3.17-8.74H281.79l-3.25,8.74H274.6l11.3-29Zm2.68,17L288,161.93h-.08L283,175.46Z"/><path class="cls-1" d="M329.94,187.1a13.8,13.8,0,0,1-5.08,1,13.56,13.56,0,0,1-5.81-1.2,13.22,13.22,0,0,1-4.34-3.23A14.13,14.13,0,0,1,312,179a16.39,16.39,0,0,1-.93-5.48,20.71,20.71,0,0,1,.87-6,14.83,14.83,0,0,1,2.6-5,12.68,12.68,0,0,1,4.31-3.44,13.46,13.46,0,0,1,6-1.28,17.73,17.73,0,0,1,4.45.55,11.25,11.25,0,0,1,3.74,1.73,10.11,10.11,0,0,1,2.76,3,11.71,11.71,0,0,1,1.53,4.37h-3.86a7.5,7.5,0,0,0-1.06-2.86,6.65,6.65,0,0,0-1.91-2,8.41,8.41,0,0,0-2.58-1.16,11.68,11.68,0,0,0-3.07-.39,9.19,9.19,0,0,0-4.53,1.06,9,9,0,0,0-3.08,2.78,12.18,12.18,0,0,0-1.77,3.94,18.16,18.16,0,0,0-.57,4.54,14.39,14.39,0,0,0,.65,4.36,11.3,11.3,0,0,0,1.91,3.7,9.34,9.34,0,0,0,3.11,2.56,9.15,9.15,0,0,0,4.28,1,10.35,10.35,0,0,0,4-.74,8.27,8.27,0,0,0,2.94-2,8.46,8.46,0,0,0,1.81-3,9.9,9.9,0,0,0,.53-3.72H324.9v-3.25h12.72v15.28h-2.44l-1-3.62A9.62,9.62,0,0,1,329.94,187.1Z"/><path class="cls-1" d="M371.47,158.43v3.25H355.3v9.23h15.07v3.25H355.3v10h16.29v3.26H351.44v-29Z"/><path class="cls-1" d="M389.75,158.43l9.15,24.38,9.18-24.38h5.28v29h-3.65V163.31h-.09l-9.06,24.14h-3.29l-9.06-24.14h-.08v24.14h-3.66v-29Z"/><path class="cls-1" d="M447.94,158.43v3.25H431.77v9.23h15.07v3.25H431.77v10h16.29v3.26H427.91v-29Z"/><path class="cls-1" d="M464.93,158.43,480.21,182h.08V158.43h3.65v29h-4.22l-15.16-23.29h-.08v23.29h-3.66v-29Z"/><path class="cls-1" d="M495.24,161.68v-3.25h23.2v3.25h-9.67v25.77h-3.86V161.68Z"/><path class="cls-1" d="M553.06,158.43v25.76h15.36v3.26H549.2v-29Z"/><path class="cls-1" d="M583.78,158.43v25.76h15.36v3.26H579.92v-29Z"/><path class="cls-1" d="M623.36,158.43c2.92,0,5.14.76,6.64,2.26a10,10,0,0,1,0,12.66c-1.5,1.51-3.72,2.26-6.64,2.23H614.5v11.87h-3.86v-29Zm-1.3,13.9c2.19,0,3.8-.42,4.81-1.34a5.09,5.09,0,0,0,1.53-4,5,5,0,0,0-1.53-4c-1-.91-2.62-1.37-4.81-1.37H614.5v10.65Z"/><path class="cls-2" d="M34.42,4.3A62.09,62.09,0,0,1,52.88,6.84a43.33,43.33,0,0,1,13.48,6.05,36.19,36.19,0,0,1,8.88,8.59A27.51,27.51,0,0,1,80.32,31,27.79,27.79,0,0,1,81.69,40a31,31,0,0,1-2.44,11.62,38.52,38.52,0,0,1-7.62,11.52q-5.07,5.57-14.75,9a63.58,63.58,0,0,1-22,3.51h-17q.09,16.6.1,56.16H.83V4.3ZM18,67.38h20.7a23.32,23.32,0,0,0,11.13-2.54,19.19,19.19,0,0,0,7.43-6.73,34.44,34.44,0,0,0,4.1-8.7,32,32,0,0,0,1.36-9.18A30.22,30.22,0,0,0,61.28,31a38.8,38.8,0,0,0-4.2-8.79,19.5,19.5,0,0,0-7.71-6.74,24.25,24.25,0,0,0-11.14-2.54H18Z"/><path class="cls-2" d="M160.6,78.91q0-10.55-4.4-16.61-3.81-5.26-11.72-7.12a25.63,25.63,0,0,0-7.91-.59,19.91,19.91,0,0,0-7,1.56q-6.15,2.64-12.3,10.65-6,8-6.06,16.4v48.64H95.36V0h15.72q.11,1.86.1,30.66t0,31.45a32.24,32.24,0,0,1,9.47-9.86,40.66,40.66,0,0,1,11.53-6,44.63,44.63,0,0,1,17.48-1.95,29.84,29.84,0,0,1,13.87,4.88,26.57,26.57,0,0,1,9.76,10.94q3.12,6.15,3.13,17v54.69H160.6Z"/><path class="cls-2" d="M213.53,17.48a11.36,11.36,0,0,1-3.52,8.3,10.52,10.52,0,0,1-8.2,3.42,11.52,11.52,0,0,1-8.3-3.52,11.38,11.38,0,0,1-3.42-8.2,11.16,11.16,0,0,1,3.51-8.3,11,11,0,0,1,8.21-3.42,11.13,11.13,0,0,1,8.3,3.52A10.78,10.78,0,0,1,213.53,17.48Zm-3.72,115.33H194.19V46.39h15.62Z"/><path class="cls-2" d="M242.92,131.84H227.2V0h15.72Z"/><g id="_7sXxRT.tif" data-name="7sXxRT.tif"><path class="cls-3" d="M289,133.19c0-.22,0-.43,0-.65s-.21-.44-.52-.26l-.31.21c-.26.18-.51.34-.86.14a.72.72,0,0,0-.48,0,.85.85,0,0,1-1.18-.73c0-.25-.06-.5-.07-.75s-.1-.45-.43-.4-.3-.09-.34-.29c-.13-.53-.35-.62-.9-.4l-.92.41c-.47.19-.69.06-.74-.42a6.84,6.84,0,0,1,.11-1.43,3.82,3.82,0,0,0-.2-1.9.69.69,0,0,0-.74-.5,5.42,5.42,0,0,1-.57,0c-.44,0-.65-.2-.64-.62,0-.24,0-.45-.24-.59s-.14-.25-.13-.39a.52.52,0,0,0-.48-.62,1.57,1.57,0,0,1-.81-.36.9.9,0,0,0-.72-.12,14.5,14.5,0,0,0-1.94.49c-.54.16-.67.07-.61-.47,0-.38-.12-.52-.48-.51l-1.36.06a.5.5,0,0,1-.58-.49,1.59,1.59,0,0,1,.05-.81c.29-.74.44-1.52.78-2.24a1.91,1.91,0,0,0,0-1.74,9.18,9.18,0,0,1-.57-1.33.58.58,0,0,0-.24-.35,1,1,0,0,1-.55-.81.19.19,0,0,0-.07-.12c-.44-.18-.54-.6-.76-.94a1,1,0,0,0-.78-.46,7,7,0,0,0-2.51-.07c-.56.12-.89-.3-.74-.88.06-.2.17-.39.25-.6s0-.46-.3-.53a7.35,7.35,0,0,0-1.24-.13c-.37,0-.51-.18-.45-.53a3.56,3.56,0,0,1,.47-1.12,14.56,14.56,0,0,0,1-2.14c.16-.46.15-.5-.33-.62-.68-.18-1.35-.39-2-.61-.22-.08-.26-.17-.17-.37a1.43,1.43,0,0,1,.86-.94,1.68,1.68,0,0,0,1.12-1.08.33.33,0,0,1,.11-.15c.42-.3.32-.65.16-1.06a2.09,2.09,0,0,0-2-1.3,5.54,5.54,0,0,1-.71-.12c-.86-.2-1.09-.74-.6-1.45.25-.36.62-.63.9-1s.36-.62-.24-.85a6.42,6.42,0,0,1-1.14-.49c-.23-.15-.29-.32-.14-.55a1.41,1.41,0,0,0,.25-.77,1.82,1.82,0,0,1,.35-1,16.48,16.48,0,0,1,1.26-1.75c.33-.41.27-.61-.2-.86-.65-.35-.71-1-.2-1.37s.38-.59-.12-.89a12,12,0,0,1-2-1.58c-.23-.21-.21-.41,0-.65a14.56,14.56,0,0,1,2.22-1.84A6.06,6.06,0,0,0,266,85a.5.5,0,0,0,0-.65A3.07,3.07,0,0,1,265.2,82a.28.28,0,0,0,0-.18,10.14,10.14,0,0,0-.95-1.78c-.24-.29-.23-.54.08-.74,1.25-.82,2.3-1.86,3.49-2.74a2.63,2.63,0,0,0,.67-3.54,2.62,2.62,0,0,1-.45-1.88,6.57,6.57,0,0,0,0-1.47c0-.45.05-.61.48-.83a12.4,12.4,0,0,1,3.07-1.17c.9-.2,1.17-.83,1.4-1.53a.9.9,0,0,0-.2-1c-.17-.17-.38-.41-.25-.67s.45-.18.69-.16a6.52,6.52,0,0,0,3.45-1,.41.41,0,0,0,.25-.44,1,1,0,0,1,.13-.59,5.35,5.35,0,0,0,.6-2,2.06,2.06,0,0,0-.05-.82.67.67,0,0,1,.35-.76,3.85,3.85,0,0,1,2.42-.55,1,1,0,0,0,1.11-.66l.53-1.19a.57.57,0,0,1,.1-.19,2.87,2.87,0,0,1,2.15-.86c.71,0,1.4.16,2.1.25a.51.51,0,0,0,.59-.33c.3-.66.38-.7,1.11-.59a.69.69,0,0,0,.65-.19,2.1,2.1,0,0,1,.88-.54,1.36,1.36,0,0,0,.56-.41,1.46,1.46,0,0,1,1.14-.46l1.94,0a1.22,1.22,0,0,1,.69.12,1.64,1.64,0,0,0,1.72,0,1.92,1.92,0,0,1,1.45-.12c.52.15,1.09.16,1.63.28a.9.9,0,0,0,.8-.22,1.06,1.06,0,0,1,.21-.16c.18-.09.46-.17.35-.42a.6.6,0,0,0-.64-.4,9.69,9.69,0,0,1-3-.19,4.59,4.59,0,0,1-.81-.29.25.25,0,0,1-.13-.12c-.12-.23.32-1,.59-1a.09.09,0,0,1,.07,0,5.44,5.44,0,0,0,2.6-.61,3.28,3.28,0,0,0,1.36-.8,1.52,1.52,0,0,0,.31-.48,4.34,4.34,0,0,1,1.07-1.71,1.25,1.25,0,0,0,.4-1.18c-.05-.2.07-.26.21-.32a.58.58,0,0,0,.4-.65,1.37,1.37,0,0,1,.91-1.24c.08,0,.2,0,.24-.1.38-.61,1.07-.55,1.67-.66a2.64,2.64,0,0,1,1,0,.67.67,0,0,0,.54-.14.85.85,0,0,1,.88-.12l1.47.56c.07,0,.16.06.19.12.19.39.45.31.76.14a2.35,2.35,0,0,1,.47-.15.68.68,0,0,0,.45-.39,1.76,1.76,0,0,1,1-.94,2.94,2.94,0,0,0,.79-.4,1.6,1.6,0,0,1,1.43.12,15.28,15.28,0,0,1,2.65,2.49c.36.43.85.72,1.21,1.14A6.42,6.42,0,0,1,319.17,47c.17.41-.09.76-.21,1.13-.07.19-.2.36-.26.56a2.76,2.76,0,0,1-1.7,1.62c-.19.08-.4.15-.25.41s.47.4.69.26a1.31,1.31,0,0,0,.25-.22.43.43,0,0,1,.61-.07.68.68,0,0,0,.74,0,6.43,6.43,0,0,1,1.48-.49,7.05,7.05,0,0,1,1.46,0,1,1,0,0,1,.77.41,2.11,2.11,0,0,0,.35.32c.55.36,1,.55,1.64,0a1.79,1.79,0,0,1,1.16-.26.45.45,0,0,1,.35.18,4.08,4.08,0,0,0,1.29.87c.4.18.54.55.79.85a1.24,1.24,0,0,0,.63.46,1.23,1.23,0,0,1,.75.73c.2.42.53.43.91.37a3.07,3.07,0,0,1,1.09,0,1.14,1.14,0,0,0,.73-.1c.28-.15.4,0,.47.2a.55.55,0,0,0,.37.41s.06,0,.07,0c.21.69.83.4,1.28.46a8,8,0,0,1,1.19.21,4.54,4.54,0,0,0,1.33.25c.55,0,.86.32.94.93.14,1.14.35,2.27.59,3.39a2.81,2.81,0,0,0,.08.31c.07.32.28.37.57.26a2.57,2.57,0,0,0,.65-.36.23.23,0,0,1,.28-.05c.1.06.18.14.14.27-.1.34.14.4.4.47a14.72,14.72,0,0,0,2.8.37,3.25,3.25,0,0,1,.93.29c.12,0,.14.18.17.29a6.79,6.79,0,0,1,.24,1.84c0,.52.11.61.67.67l.33.07c.36.12.43.27.26.6a11.88,11.88,0,0,0-.79,1.74c-.12.41-.07.54.36.65s.59.27.57.75A5.68,5.68,0,0,1,346,69.7c-.09.27-.14.55-.23.83a.27.27,0,0,0,.19.4,17.56,17.56,0,0,1,3.35,1.62A3.34,3.34,0,0,1,350.58,74c.19.28,0,.58-.21.78a9,9,0,0,0-1.05,1.44,7.26,7.26,0,0,0-.83,1.76c-.13.43,0,.59.41.79a19.33,19.33,0,0,1,3,1.69c.37.25.38.49.06.8l-.9.87c-.26.27-.26.4.07.6a10.29,10.29,0,0,0,1.91,1c.49.18.55.48.18.83a2.61,2.61,0,0,1-.31.27,2.23,2.23,0,0,0-.84,1c-.22.63-.83.94-1.34,1.33l-.53.4c-.23.18-.23.37,0,.58.52.52,1.19.85,1.75,1.31a6.42,6.42,0,0,1,.82.83.31.31,0,0,1-.1.52c-.2.13-.4.24-.61.36s-.2.28,0,.43c.34.27.66.56,1,.83s.44.43,0,.74a4.22,4.22,0,0,1-.91.43c-.61.26-.67.56-.17,1,.26.24.57.43.84.67s.3.43,0,.71a8.64,8.64,0,0,1-2.7,1.34,7.11,7.11,0,0,0-1.27.62.49.49,0,0,0-.23.73,3.24,3.24,0,0,1,.36,1,2,2,0,0,0,.71,1,21.63,21.63,0,0,0,2.39,2.19c.62.42.51,1-.18,1.33a17.27,17.27,0,0,0-1.77,1,4.56,4.56,0,0,1-.95.44c-.28.08-.47.23-.42.54a.41.41,0,0,1-.32.46c-.31.12-.61.23-.91.36s-.44.39-.17.64a7.19,7.19,0,0,1,1.48,2.39c.12.27.23.53,0,.78a.73.73,0,0,1-.83.19,1.09,1.09,0,0,0-.26,0c-.18,0-.4-.06-.52.13s0,.32.11.47a7.23,7.23,0,0,0,.74,1.4c.26.34.07.62-.39.66a1.77,1.77,0,0,0-.61.16,7.23,7.23,0,0,1-2.29.5c-1,.13-1.12.37-.7,1.19a11.51,11.51,0,0,1,.71,1.66c.08.22.12.42-.23.47s-.27.19-.21.39.18.47.24.71c.11.39-.07.6-.49.62a6.09,6.09,0,0,1-1.35-.18c-.42-.07-.47,0-.4.41a20.38,20.38,0,0,0,.88,2.88c.12.37,0,.55-.46.54s-1-.13-1.47-.1-.59.08-.6.56c0,.32-.17.32-.42.26-.94-.2-1.86-.46-2.8-.61-.44-.07-.58,0-.59.47,0,.21,0,.43,0,.64a.63.63,0,0,1-.25.61.34.34,0,0,0-.11.48c.05.1.08.22.13.33.16.48.16.48-.34.6-.26.06-.32.22-.26.46a3.11,3.11,0,0,1,.26,1.43,5.3,5.3,0,0,1-.58,1.47c-.12.21-.37.17-.58.13-.78-.16-1.55-.33-2.32-.51s-.89,0-.88.69a3.92,3.92,0,0,1-.61,2.44c-.28.38-.45.38-.76,0-.08-.08-.14-.17-.21-.25-.34-.39-.42-.39-.78,0a.84.84,0,0,1-.94,0c-.65-.41-.66-.42-.88.28s-.65.64-1.19.29a1.62,1.62,0,0,1-.18-.19c-.11-.11-.23-.24-.42-.19s-.17.22-.2.36-.1.49-.17.73a.66.66,0,0,1-.33.47c-.45.17-.54.53-.64.9a1.58,1.58,0,0,1-.09.31c-.23.66-.5.8-1.23.67a6.07,6.07,0,0,1-2.58-.92c-.44-.31-.77-.13-.85.38,0,.2,0,.4-.07.6s-.18.29-.37.19a10.24,10.24,0,0,1-1.73-1c-.2-.15-.35-.18-.5,0a.73.73,0,0,1-.45.31,2,2,0,0,0-1.3,1.32c-.07.14-.14.28-.2.42-.24.54-.24.54-.72.18a.3.3,0,0,0-.38,0,.66.66,0,0,1-.91-.14c-.4-.39-.45-.38-.76.1a3.1,3.1,0,0,1-.47.56.45.45,0,0,1-.67,0c-.22-.22-.44-.46-.65-.69a.36.36,0,0,0-.58,0c-.49.43-.67.4-1-.15a6.94,6.94,0,0,0-.68-.86c-.36-.42-.78-.39-.95.13s-.3.63-.8.6c-.24,0-.38.25-.55.4a1.15,1.15,0,0,1-1.89-.27,1.81,1.81,0,0,0-.18-.27c-.24-.27-.43-.25-.61.06s-.24.45-.35.67a.63.63,0,0,1-1.09.2,7.22,7.22,0,0,1-1-1.36c-.15-.2-.27-.43-.42-.64s-.44-.34-.74-.08l-.35.33a.78.78,0,0,1-1.16,0c-.16-.17-.29-.37-.43-.55s-.34-.23-.54,0a9.18,9.18,0,0,0-1,1.29c-.26.39-.48.42-.87.15a1.25,1.25,0,0,0-.35-.21c-.35-.09-.55-.28-.52-.64a.48.48,0,0,0-.18-.38,3,3,0,0,1-.78-1.21c-.07-.2-.26-.31-.37-.49a12.88,12.88,0,0,1-.81-1.62c-.13-.31-.29-.36-.58-.15L289.42,134c-.11.08-.21.21-.36.13s-.12-.22-.11-.35,0-.36,0-.54Z"/></g><g id="u51vph.tif"><path class="cls-4" d="M270.14.34c0-.28.06-.34.34-.34"/><path class="cls-4" d="M300,41.44c-.1,0-.07-.15-.07-.23a49.42,49.42,0,0,0-.59-5.41,44.09,44.09,0,0,0-6.83-17.38A51.62,51.62,0,0,0,276.92,3.36,45,45,0,0,0,271.17.23c-.2-.09-.38-.18-.42.15A22.92,22.92,0,0,0,270.39,3a41.63,41.63,0,0,0,.67,12.1,39.46,39.46,0,0,0,11.28,20.67A37.3,37.3,0,0,0,286,39l.1.08a4.69,4.69,0,0,0,.75.58.3.3,0,0,0,.22.16l.08.06a.34.34,0,0,0,.22.17.62.62,0,0,0,.29.21.36.36,0,0,0,.23.17l.07,0a.32.32,0,0,0,.23.16h0a.34.34,0,0,0,.23.15h0a.32.32,0,0,0,.22.16h0a.32.32,0,0,0,.23.16h0c.13.09.25.2.39.29a49.52,49.52,0,0,0,6,3.46,32.3,32.3,0,0,0,4.2,1.79h0c.1.09.26.06.33.19"/><path class="cls-4" d="M270.75.38c0-.33.22-.24.42-.15a45,45,0,0,1,5.75,3.13,51.62,51.62,0,0,1,15.56,15.06,44.09,44.09,0,0,1,6.83,17.38,49.42,49.42,0,0,1,.59,5.41c0,.08,0,.18.07.23v4.78c-.12.19,0,.4-.07.6h-.15c-.07-.13-.23-.1-.33-.19.33,0,.17-.23.09-.36L296.81,42q-1.79-2.84-3.55-5.67l-5-8.08c-1.54-2.46-3.06-4.93-4.6-7.39l-4-6.39q-2.37-3.78-4.72-7.57c-1.14-1.83-2.27-3.67-3.42-5.49C271.27,1,271.16.59,270.75.38Z"/><path class="cls-4" d="M299.9,46.82c0-.2,0-.41.07-.6C299.93,46.42,300.05,46.63,299.9,46.82Z"/><path class="cls-4" d="M270.75.38c.41.21.52.65.74,1,1.15,1.82,2.28,3.66,3.42,5.49q2.35,3.78,4.72,7.57l4,6.39c1.54,2.46,3.06,4.93,4.6,7.39l5,8.08Q295,39.13,296.81,42l2.7,4.31c.08.13.24.32-.09.36h0c0-.17-.19-.18-.3-.23-.83-.36-1.67-.68-2.48-1.07a60.46,60.46,0,0,1-6.71-3.66,2.36,2.36,0,0,0-1.09-.58h0c0-.19-.11-.17-.23-.16h0c0-.18-.1-.17-.22-.16h0c0-.17-.11-.16-.23-.15h0c0-.16-.11-.16-.23-.16l-.07,0c0-.17-.11-.18-.23-.17a.62.62,0,0,1-.29-.21c0-.16-.11-.17-.22-.17l-.08-.06c0-.15-.1-.16-.22-.16a4.69,4.69,0,0,1-.75-.58L286,39a37.3,37.3,0,0,1-3.66-3.22A39.46,39.46,0,0,1,271.06,15.1,41.63,41.63,0,0,1,270.39,3,22.92,22.92,0,0,1,270.75.38Z"/><path class="cls-4" d="M288.84,41.09a2.36,2.36,0,0,1,1.09.58,60.46,60.46,0,0,0,6.71,3.66c.81.39,1.65.71,2.48,1.07.11.05.28.06.3.23a32.3,32.3,0,0,1-4.2-1.79,49.52,49.52,0,0,1-6-3.46C289.09,41.29,289,41.18,288.84,41.09Z"/><path class="cls-4" d="M286.85,39.65c.12,0,.22,0,.22.16A.3.3,0,0,1,286.85,39.65Z"/><path class="cls-4" d="M287.15,39.87c.11,0,.22,0,.22.17A.34.34,0,0,1,287.15,39.87Z"/><path class="cls-4" d="M287.66,40.25c.12,0,.23,0,.23.17A.36.36,0,0,1,287.66,40.25Z"/><path class="cls-4" d="M288,40.47c.12,0,.23,0,.23.16A.32.32,0,0,1,288,40.47Z"/><path class="cls-4" d="M288.18,40.63c.12,0,.23,0,.23.15A.34.34,0,0,1,288.18,40.63Z"/><path class="cls-4" d="M288.4,40.78c.12,0,.24,0,.22.16A.32.32,0,0,1,288.4,40.78Z"/><path class="cls-4" d="M288.62,40.93c.12,0,.24,0,.23.16A.32.32,0,0,1,288.62,40.93Z"/><path class="cls-4" d="M286,39l.1.08Z"/></g><path class="cls-2" d="M418,46.18a71,71,0,0,1,9.57,5.56L425.4,62.49a36,36,0,0,0-9.86-8.21,33.54,33.54,0,0,0-13.18-4.88,22.91,22.91,0,0,0-11.23.59,13.3,13.3,0,0,0-7.33,4.88A12.2,12.2,0,0,0,381.56,62,9.75,9.75,0,0,0,384,68.74a23.27,23.27,0,0,0,4.88,3.8q3.22,1.67,5.27,2.64,2.25.78,8.11,2.74c4,1.3,6.93,2.24,8.69,2.83Q426.09,85.93,430.48,92q6,7.71,3.42,19.63-2.53,12.11-13.48,17.18-10.83,4.89-25.68,3A55.71,55.71,0,0,1,370,122.25l2.35-11.62a47.49,47.49,0,0,0,7.91,6.54,42.51,42.51,0,0,0,11.42,5.47,56.47,56.47,0,0,0,9.18,1.56,32.07,32.07,0,0,0,9.57-.87,16.77,16.77,0,0,0,7.62-4.4,11.53,11.53,0,0,0,3.22-6.25,10.51,10.51,0,0,0-.88-7.32q-2.73-5.56-14.35-9.48-1.86-.78-6.84-2.34c-3.19-1.11-5.69-1.92-7.52-2.44l-6.15-2.64a52,52,0,0,1-6.35-3.22,38.79,38.79,0,0,1-4.49-3.81,19.94,19.94,0,0,1-5.18-10.84,25.31,25.31,0,0,1,1.08-11.23,22.23,22.23,0,0,1,5-8.2q9.47-9.76,24.41-9.28A41,41,0,0,1,418,46.18Z"/><path class="cls-2" d="M540.64,129.87H524.82v-6.45a51.85,51.85,0,0,1-29.2,8.89q-20,0-33.3-13.09-13.1-13.17-13.09-32.13T462.51,55q13.1-13.19,33.11-13.09a49.92,49.92,0,0,1,29.2,8.89l10.64-6.06h5.18Zm-49.71-81c-.72.07-1.14.1-1.27.1q-11.91,1.56-18.94,14.06-6.84,12.3-4.4,28,2.64,15.44,12.6,24.9,10.15,9.57,22.56,9.18a34.11,34.11,0,0,0,7.52-1.27,44.33,44.33,0,0,0,7.52-3.32,17.87,17.87,0,0,0,6-6.15,17,17,0,0,0,2.35-9.18V73.72A33.79,33.79,0,0,0,513,56a29.93,29.93,0,0,0-20.31-7.42A8.31,8.31,0,0,0,490.93,48.91Z"/><path class="cls-2" d="M619.45,76.94q-.11-10.35-4.59-16.6-3.81-5.28-11.72-7.13a25.48,25.48,0,0,0-7.81-.59,20,20,0,0,0-7,1.56q-6.15,2.55-12.2,10.55T570,81.24v48.63H554.31V44.32H570V60.14a32.28,32.28,0,0,1,9.48-9.86,39.8,39.8,0,0,1,11.32-6,44.92,44.92,0,0,1,17.48-2,29.89,29.89,0,0,1,14,4.88A26.56,26.56,0,0,1,632,58.19q3.13,6.15,3.13,17v54.69H619.45Z"/></g></g></svg>